<svg width="404" height="153" viewBox="0 0 404 153" fill="none" xmlns="http://www.w3.org/2000/svg">
<path d="M227.475 126L221.77 97.65H226.355L230.1 117.705L233.6 97.65H238.29L232.585 126H227.475ZM248.574 126.385C246.568 126.385 244.969 126.012 243.779 125.265C242.589 124.518 241.738 123.445 241.224 122.045C240.711 120.645 240.454 118.988 240.454 117.075V106.47C240.454 104.557 240.711 102.923 241.224 101.57C241.738 100.193 242.589 99.1433 243.779 98.42C244.969 97.6967 246.568 97.335 248.574 97.335C250.628 97.335 252.238 97.6967 253.404 98.42C254.594 99.1433 255.446 100.193 255.959 101.57C256.496 102.923 256.764 104.557 256.764 106.47V117.11C256.764 119 256.496 120.645 255.959 122.045C255.446 123.422 254.594 124.495 253.404 125.265C252.238 126.012 250.628 126.385 248.574 126.385ZM248.574 122.57C249.438 122.57 250.068 122.383 250.464 122.01C250.884 121.637 251.164 121.123 251.304 120.47C251.444 119.817 251.514 119.105 251.514 118.335V105.28C251.514 104.487 251.444 103.775 251.304 103.145C251.164 102.515 250.884 102.025 250.464 101.675C250.068 101.302 249.438 101.115 248.574 101.115C247.758 101.115 247.139 101.302 246.719 101.675C246.299 102.025 246.019 102.515 245.879 103.145C245.739 103.775 245.669 104.487 245.669 105.28V118.335C245.669 119.105 245.728 119.817 245.844 120.47C245.984 121.123 246.264 121.637 246.684 122.01C247.104 122.383 247.734 122.57 248.574 122.57ZM264.799 126L259.094 97.65H263.679L267.424 117.705L270.924 97.65H275.614L269.909 126H264.799ZM285.898 126.385C283.892 126.385 282.293 126.012 281.103 125.265C279.913 124.518 279.062 123.445 278.548 122.045C278.035 120.645 277.778 118.988 277.778 117.075V106.47C277.778 104.557 278.035 102.923 278.548 101.57C279.062 100.193 279.913 99.1433 281.103 98.42C282.293 97.6967 283.892 97.335 285.898 97.335C287.952 97.335 289.562 97.6967 290.728 98.42C291.918 99.1433 292.77 100.193 293.283 101.57C293.82 102.923 294.088 104.557 294.088 106.47V117.11C294.088 119 293.82 120.645 293.283 122.045C292.77 123.422 291.918 124.495 290.728 125.265C289.562 126.012 287.952 126.385 285.898 126.385ZM285.898 122.57C286.762 122.57 287.392 122.383 287.788 122.01C288.208 121.637 288.488 121.123 288.628 120.47C288.768 119.817 288.838 119.105 288.838 118.335V105.28C288.838 104.487 288.768 103.775 288.628 103.145C288.488 102.515 288.208 102.025 287.788 101.675C287.392 101.302 286.762 101.115 285.898 101.115C285.082 101.115 284.463 101.302 284.043 101.675C283.623 102.025 283.343 102.515 283.203 103.145C283.063 103.775 282.993 104.487 282.993 105.28V118.335C282.993 119.105 283.052 119.817 283.168 120.47C283.308 121.123 283.588 121.637 284.008 122.01C284.428 122.383 285.058 122.57 285.898 122.57ZM284.498 95.69L286.633 88.69H291.428L287.263 95.69H284.498Z" fill="#383A7A"/>
<path fill-rule="evenodd" clip-rule="evenodd" d="M57.4954 86.8679C75.5126 86.8679 90.136 72.9924 90.136 55.893C90.136 38.7936 75.5292 24.9181 57.4954 24.9181C39.4615 24.9181 24.8548 38.7936 24.8548 55.893C24.8548 72.9924 39.4615 86.8679 57.4954 86.8679ZM57.4954 110.465C89.2542 110.465 114.991 86.0371 114.991 55.893C114.991 25.7489 89.2542 1.32129 57.4954 1.32129C25.7365 1.32129 0 25.7489 0 55.893C0 86.0371 25.7365 110.465 57.4954 110.465Z" fill="#4671B1"/>
<path d="M128.683 110.975L146.518 91.9974C148.531 89.8537 148.531 86.3474 146.518 84.2038L140.662 77.9723C138.632 75.812 135.355 75.812 133.325 77.9723L115.491 96.9494L97.6565 77.9723C95.6435 75.8286 92.3661 75.8286 90.3365 77.9723L84.4639 84.2204C82.4509 86.3641 82.4509 89.8704 84.4639 92.014L102.298 110.991L84.4639 129.968C82.4509 132.112 82.4509 135.618 84.4639 137.762L90.3199 143.993C92.3329 146.137 95.6102 146.137 97.6399 143.993L115.474 125.016L133.308 143.993C135.321 146.137 138.599 146.137 140.628 143.993L146.484 137.762C148.497 135.618 148.497 132.112 146.484 129.968L128.667 110.975H128.683Z" fill="#EBC33E"/>
<path d="M167.135 126V97.65H173.82C176.13 97.65 177.927 97.965 179.21 98.595C180.517 99.225 181.438 100.193 181.975 101.5C182.535 102.807 182.815 104.463 182.815 106.47V116.83C182.815 118.883 182.535 120.598 181.975 121.975C181.438 123.328 180.528 124.343 179.245 125.02C177.985 125.673 176.247 126 174.03 126H167.135ZM172.315 122.395H173.89C175.08 122.395 175.932 122.185 176.445 121.765C176.958 121.345 177.273 120.738 177.39 119.945C177.507 119.128 177.565 118.137 177.565 116.97V106.12C177.565 104.977 177.483 104.055 177.32 103.355C177.157 102.655 176.818 102.142 176.305 101.815C175.792 101.488 174.963 101.325 173.82 101.325H172.315V122.395ZM184.977 126L190.647 97.65H196.177L201.847 126H197.052L195.932 119.455H190.997L189.842 126H184.977ZM191.522 116.165H195.372L193.447 104.265L191.522 116.165Z" fill="#383A7A"/>
<path d="M165.3 2.67822H180.838C190.87 2.67822 197.641 3.14351 201.185 4.05747C204.712 4.97143 207.407 6.48361 209.253 8.59403C211.1 10.7044 212.248 13.0309 212.714 15.6232C213.18 18.1989 213.413 23.2672 213.413 30.8282V58.7787C213.413 65.9409 213.08 70.7267 212.398 73.1528C211.716 75.5624 210.551 77.4567 208.871 78.8194C207.19 80.182 205.128 81.1292 202.649 81.6776C200.187 82.226 196.46 82.4918 191.502 82.4918H165.317V2.69484L165.3 2.67822ZM186.062 16.3378V68.8323C189.057 68.8323 190.903 68.2341 191.586 67.0376C192.284 65.8412 192.617 62.5841 192.617 57.2499V26.2418C192.617 22.6192 192.501 20.3093 192.268 19.2957C192.035 18.282 191.519 17.5342 190.687 17.0523C189.872 16.5704 188.325 16.3378 186.046 16.3378H186.062Z" fill="#383A7A"/>
<path d="M165.3 2.67822H180.838C190.87 2.67822 197.641 3.14351 201.185 4.05747C204.712 4.97143 207.407 6.48361 209.253 8.59403C211.1 10.7044 212.248 13.0309 212.714 15.6232C213.18 18.1989 213.413 23.2672 213.413 30.8282V58.7787C213.413 65.9409 213.08 70.7267 212.398 73.1528C211.716 75.5624 210.551 77.4568 208.871 78.8194C207.19 80.182 205.128 81.1292 202.649 81.6776C200.187 82.226 196.46 82.4918 191.502 82.4918H165.317V2.69484L165.3 2.67822ZM186.062 16.3378V68.8323C189.057 68.8323 190.903 68.2341 191.586 67.0376C192.284 65.8412 192.617 62.5841 192.617 57.2499V26.2418C192.617 22.6192 192.501 20.3093 192.268 19.2957C192.035 18.282 191.519 17.5342 190.687 17.0523C189.872 16.5704 188.325 16.3378 186.046 16.3378H186.062Z" stroke="#383A7A" stroke-miterlimit="10"/>
<path d="M268.313 2.67822V56.0036C268.313 62.0524 268.113 66.2898 267.714 68.7492C267.314 71.192 266.15 73.7178 264.22 76.2935C262.274 78.8692 259.728 80.8301 256.551 82.1595C253.373 83.4889 249.63 84.1536 245.338 84.1536C240.563 84.1536 236.354 83.3726 232.711 81.7939C229.067 80.2152 226.339 78.1547 224.526 75.6288C222.712 73.103 221.647 70.4276 221.315 67.6192C220.982 64.8109 220.816 58.8951 220.816 49.905V2.67822H241.578V62.5177C241.578 66.0073 241.761 68.2341 242.144 69.1979C242.526 70.1617 243.291 70.6602 244.439 70.6602C245.754 70.6602 246.602 70.1285 246.985 69.0649C247.367 68.0014 247.55 65.4756 247.55 61.504V2.69484H268.313V2.67822Z" fill="#383A7A"/>
<path d="M268.313 2.67822V56.0036C268.313 62.0524 268.113 66.2898 267.714 68.7492C267.314 71.192 266.15 73.7178 264.22 76.2935C262.274 78.8692 259.728 80.8301 256.551 82.1595C253.373 83.4889 249.63 84.1536 245.338 84.1536C240.563 84.1536 236.354 83.3726 232.711 81.7939C229.067 80.2152 226.339 78.1547 224.526 75.6288C222.712 73.103 221.647 70.4276 221.315 67.6192C220.982 64.8109 220.816 58.8951 220.816 49.905V2.67822H241.578V62.5177C241.578 66.0073 241.761 68.2341 242.144 69.1979C242.526 70.1617 243.291 70.6602 244.439 70.6602C245.754 70.6602 246.602 70.1285 246.985 69.0649C247.367 68.0014 247.55 65.4756 247.55 61.504V2.69484H268.313V2.67822Z" stroke="#383A7A" stroke-miterlimit="10"/>
<path d="M276.365 2.67822H310.985V18.6476H297.127V33.7861H310.103V48.9744H297.127V66.5225H312.366V82.4918H276.365V2.69484V2.67822Z" fill="#383A7A"/>
<path d="M276.365 2.67822H310.985V18.6476H297.127V33.7861H310.103V48.9744H297.127V66.5225H312.366V82.4918H276.365V2.69484V2.67822Z" stroke="#383A7A" stroke-miterlimit="10"/>
<path d="M339.1 2.67822V66.5059H351.727V82.4752H318.338V2.67822H339.1Z" fill="#383A7A"/>
<path d="M339.1 2.67822V66.5059H351.727V82.4752H318.338V2.67822H339.1Z" stroke="#383A7A" stroke-miterlimit="10"/>
<path d="M402.668 49.4066C402.668 57.4329 402.485 63.0994 402.102 66.4395C401.72 69.7796 400.539 72.8206 398.559 75.5791C396.563 78.3376 393.884 80.4647 390.49 81.9436C387.096 83.4226 383.154 84.1537 378.662 84.1537C374.17 84.1537 370.543 83.4558 367.149 82.0599C363.756 80.6641 361.011 78.5703 358.931 75.7785C356.851 72.9868 355.62 69.9458 355.238 66.6555C354.855 63.3653 354.639 57.6157 354.639 49.4066V35.7471C354.639 27.7375 354.822 22.0543 355.205 18.7142C355.587 15.3741 356.768 12.3331 358.748 9.57461C360.744 6.81611 363.423 4.68908 366.817 3.21012C370.211 1.73117 374.153 1 378.662 1C382.937 1 386.78 1.69794 390.174 3.0938C393.568 4.48967 396.313 6.58347 398.393 9.3752C400.472 12.1669 401.703 15.2079 402.086 18.4982C402.485 21.7884 402.685 27.5381 402.685 35.7471V49.4066H402.668ZM381.906 23.1843C381.906 19.4786 381.706 17.1023 381.29 16.0554C380.874 15.0251 380.026 14.51 378.745 14.51C377.664 14.51 376.832 14.9254 376.25 15.7729C375.667 16.6038 375.384 19.0798 375.384 23.1843V60.4406C375.384 65.0769 375.567 67.9351 375.95 69.0152C376.333 70.0954 377.214 70.6437 378.595 70.6437C379.976 70.6437 380.908 70.0123 381.307 68.766C381.706 67.5197 381.906 64.5451 381.906 59.8424V23.1677V23.1843Z" fill="#383A7A"/>
<path d="M402.668 49.4066C402.668 57.4329 402.485 63.0994 402.102 66.4395C401.72 69.7796 400.539 72.8206 398.559 75.5791C396.563 78.3376 393.884 80.4647 390.49 81.9436C387.096 83.4226 383.154 84.1537 378.662 84.1537C374.17 84.1537 370.543 83.4558 367.149 82.0599C363.756 80.6641 361.011 78.5703 358.931 75.7785C356.851 72.9868 355.62 69.9458 355.238 66.6556C354.855 63.3653 354.639 57.6157 354.639 49.4066V35.7471C354.639 27.7375 354.822 22.0543 355.205 18.7142C355.587 15.3741 356.768 12.3331 358.748 9.57461C360.744 6.81611 363.423 4.68908 366.817 3.21012C370.211 1.73117 374.153 1 378.662 1C382.937 1 386.78 1.69794 390.174 3.0938C393.568 4.48967 396.313 6.58347 398.393 9.3752C400.472 12.1669 401.703 15.2079 402.086 18.4982C402.485 21.7884 402.685 27.5381 402.685 35.7471V49.4066H402.668ZM381.906 23.1843C381.906 19.4786 381.706 17.1023 381.29 16.0554C380.874 15.0251 380.026 14.51 378.745 14.51C377.664 14.51 376.832 14.9254 376.25 15.7729C375.667 16.6038 375.384 19.0798 375.384 23.1843V60.4406C375.384 65.0769 375.567 67.9351 375.95 69.0152C376.333 70.0954 377.214 70.6437 378.595 70.6437C379.976 70.6437 380.908 70.0123 381.307 68.766C381.706 67.5197 381.906 64.5451 381.906 59.8424V23.1677V23.1843Z" stroke="#383A7A" stroke-miterlimit="10"/>
</svg>
