<svg width="404" height="153" viewBox="0 0 404 153" fill="none" xmlns="http://www.w3.org/2000/svg">
<path d="M264.16 92.7188H268.71L272.455 112.774L275.99 92.7188H280.645L274.94 121.069H269.865L264.16 92.7188ZM291.101 121.454C288.161 121.454 286.061 120.672 284.801 119.109C283.541 117.522 282.911 115.212 282.911 112.179V101.539C282.911 98.5288 283.541 96.2538 284.801 94.7138C286.061 93.1738 288.161 92.4038 291.101 92.4038C294.018 92.4038 296.106 93.1738 297.366 94.7138C298.626 96.2538 299.256 98.5288 299.256 101.539V112.179C299.256 115.189 298.614 117.487 297.331 119.074C296.071 120.661 293.994 121.454 291.101 121.454ZM291.101 117.639C292.244 117.639 293.014 117.277 293.411 116.554C293.808 115.831 294.006 114.781 294.006 113.404V100.349C294.006 98.9722 293.808 97.9338 293.411 97.2338C293.038 96.5338 292.268 96.1838 291.101 96.1838C289.934 96.1838 289.153 96.5455 288.756 97.2688C288.359 97.9688 288.161 98.9955 288.161 100.349V113.404C288.161 114.781 288.359 115.831 288.756 116.554C289.153 117.277 289.934 117.639 291.101 117.639ZM301.758 92.7188H306.308L310.053 112.774L313.588 92.7188H318.243L312.538 121.069H307.463L301.758 92.7188ZM328.87 121.454C325.93 121.454 323.83 120.672 322.57 119.109C321.31 117.522 320.68 115.212 320.68 112.179V101.539C320.68 98.5288 321.31 96.2538 322.57 94.7138C323.83 93.1738 325.93 92.4038 328.87 92.4038C331.786 92.4038 333.875 93.1738 335.135 94.7138C336.395 96.2538 337.025 98.5288 337.025 101.539V112.179C337.025 115.189 336.383 117.487 335.1 119.074C333.84 120.661 331.763 121.454 328.87 121.454ZM328.87 117.639C330.013 117.639 330.783 117.277 331.18 116.554C331.576 115.831 331.775 114.781 331.775 113.404V100.349C331.775 98.9722 331.576 97.9338 331.18 97.2338C330.806 96.5338 330.036 96.1838 328.87 96.1838C327.703 96.1838 326.921 96.5455 326.525 97.2688C326.128 97.9688 325.93 98.9955 325.93 100.349V113.404C325.93 114.781 326.128 115.831 326.525 116.554C326.921 117.277 327.703 117.639 328.87 117.639ZM329.535 83.7588H334.365L330.2 90.7588H327.435L329.535 83.7588Z" fill="#383A7A"/>
<path fill-rule="evenodd" clip-rule="evenodd" d="M57.4954 86.8679C75.5126 86.8679 90.136 72.9924 90.136 55.893C90.136 38.7936 75.5292 24.9181 57.4954 24.9181C39.4615 24.9181 24.8548 38.7936 24.8548 55.893C24.8548 72.9924 39.4615 86.8679 57.4954 86.8679ZM57.4954 110.465C89.2543 110.465 114.991 86.0371 114.991 55.893C114.991 25.7489 89.2543 1.32129 57.4954 1.32129C25.7365 1.32129 0 25.7489 0 55.893C0 86.0371 25.7365 110.465 57.4954 110.465Z" fill="#4671B1"/>
<path d="M128.683 110.975L146.518 91.9974C148.531 89.8537 148.531 86.3474 146.518 84.2038L140.662 77.9723C138.632 75.812 135.355 75.812 133.325 77.9723L115.491 96.9494L97.6565 77.9723C95.6435 75.8286 92.3661 75.8286 90.3365 77.9723L84.4639 84.2204C82.4509 86.3641 82.4509 89.8704 84.4639 92.014L102.298 110.991L84.4639 129.968C82.4509 132.112 82.4509 135.618 84.4639 137.762L90.3199 143.993C92.3329 146.137 95.6102 146.137 97.6399 143.993L115.474 125.016L133.308 143.993C135.321 146.137 138.599 146.137 140.628 143.993L146.484 137.762C148.497 135.618 148.497 132.112 146.484 129.968L128.667 110.975H128.683Z" fill="#EBC33E"/>
<path d="M192.29 92.7188H198.975C201.262 92.7188 203.058 93.0338 204.365 93.6638C205.672 94.2705 206.593 95.2155 207.13 96.4988C207.69 97.7588 207.97 99.4388 207.97 101.539V111.864C207.97 114.011 207.69 115.749 207.13 117.079C206.593 118.409 205.683 119.412 204.4 120.089C203.117 120.742 201.378 121.069 199.185 121.069H192.29V92.7188ZM199.045 117.464C200.188 117.464 201.017 117.266 201.53 116.869C202.043 116.472 202.37 115.924 202.51 115.224C202.65 114.501 202.72 113.439 202.72 112.039V101.189C202.72 99.9288 202.638 98.9722 202.475 98.3188C202.312 97.6655 201.962 97.1872 201.425 96.8838C200.912 96.5572 200.095 96.3938 198.975 96.3938H197.435V117.464H199.045ZM215.631 92.7188H221.161L226.831 121.069H222.036L220.916 114.524H215.981L214.826 121.069H209.961L215.631 92.7188ZM220.356 111.234L218.431 99.3338L216.506 111.234H220.356Z" fill="#383A7A"/>
<path d="M165.3 2.67822H180.838C190.87 2.67822 197.641 3.14351 201.185 4.05747C204.712 4.97143 207.407 6.48361 209.253 8.59403C211.1 10.7044 212.248 13.0309 212.714 15.6232C213.18 18.1989 213.413 23.2672 213.413 30.8282V58.7787C213.413 65.9409 213.08 70.7267 212.398 73.1528C211.716 75.5624 210.551 77.4568 208.871 78.8194C207.19 80.182 205.128 81.1292 202.649 81.6776C200.187 82.226 196.46 82.4918 191.502 82.4918H165.317V2.69484L165.3 2.67822ZM186.062 16.3378V68.8323C189.057 68.8323 190.903 68.2341 191.586 67.0376C192.284 65.8412 192.617 62.5841 192.617 57.2499V26.2418C192.617 22.6192 192.501 20.3093 192.268 19.2957C192.035 18.282 191.519 17.5342 190.687 17.0523C189.872 16.5704 188.325 16.3378 186.046 16.3378H186.062Z" fill="#383A7A"/>
<path d="M165.3 2.67822H180.838C190.87 2.67822 197.641 3.14351 201.185 4.05747C204.712 4.97143 207.407 6.48361 209.253 8.59403C211.1 10.7044 212.248 13.0309 212.714 15.6232C213.18 18.1989 213.413 23.2672 213.413 30.8282V58.7787C213.413 65.9409 213.08 70.7267 212.398 73.1528C211.716 75.5624 210.551 77.4568 208.871 78.8194C207.19 80.182 205.128 81.1292 202.649 81.6776C200.187 82.226 196.46 82.4918 191.502 82.4918H165.317V2.69484L165.3 2.67822ZM186.062 16.3378V68.8323C189.057 68.8323 190.903 68.2341 191.586 67.0376C192.284 65.8412 192.617 62.5841 192.617 57.2499V26.2418C192.617 22.6192 192.501 20.3093 192.268 19.2957C192.035 18.282 191.519 17.5342 190.687 17.0523C189.872 16.5704 188.325 16.3378 186.046 16.3378H186.062Z" stroke="#383A7A" stroke-miterlimit="10"/>
<path d="M268.313 2.67822V56.0036C268.313 62.0524 268.113 66.2898 267.714 68.7492C267.314 71.192 266.15 73.7178 264.22 76.2935C262.274 78.8692 259.728 80.8301 256.551 82.1595C253.373 83.4889 249.63 84.1536 245.338 84.1536C240.563 84.1536 236.354 83.3726 232.711 81.7939C229.067 80.2152 226.339 78.1547 224.526 75.6288C222.712 73.103 221.647 70.4276 221.315 67.6192C220.982 64.8109 220.816 58.8951 220.816 49.905V2.67822H241.578V62.5177C241.578 66.0073 241.761 68.2341 242.144 69.1979C242.526 70.1617 243.291 70.6602 244.439 70.6602C245.754 70.6602 246.602 70.1285 246.985 69.0649C247.367 68.0014 247.55 65.4756 247.55 61.504V2.69484H268.313V2.67822Z" fill="#383A7A"/>
<path d="M268.313 2.67822V56.0036C268.313 62.0524 268.113 66.2898 267.714 68.7492C267.314 71.192 266.15 73.7178 264.22 76.2935C262.274 78.8692 259.728 80.8301 256.551 82.1595C253.373 83.4889 249.63 84.1536 245.338 84.1536C240.563 84.1536 236.354 83.3726 232.711 81.7939C229.067 80.2152 226.339 78.1547 224.526 75.6288C222.712 73.103 221.647 70.4276 221.315 67.6192C220.982 64.8109 220.816 58.8951 220.816 49.905V2.67822H241.578V62.5177C241.578 66.0073 241.761 68.2341 242.144 69.1979C242.526 70.1617 243.291 70.6602 244.439 70.6602C245.754 70.6602 246.602 70.1285 246.985 69.0649C247.367 68.0014 247.55 65.4756 247.55 61.504V2.69484H268.313V2.67822Z" stroke="#383A7A" stroke-miterlimit="10"/>
<path d="M276.365 2.67822H310.985V18.6476H297.127V33.7861H310.103V48.9744H297.127V66.5225H312.366V82.4918H276.365V2.69484V2.67822Z" fill="#383A7A"/>
<path d="M276.365 2.67822H310.985V18.6476H297.127V33.7861H310.103V48.9744H297.127V66.5225H312.366V82.4918H276.365V2.69484V2.67822Z" stroke="#383A7A" stroke-miterlimit="10"/>
<path d="M339.1 2.67822V66.5059H351.727V82.4752H318.338V2.67822H339.1Z" fill="#383A7A"/>
<path d="M339.1 2.67822V66.5059H351.727V82.4752H318.338V2.67822H339.1Z" stroke="#383A7A" stroke-miterlimit="10"/>
<path d="M402.668 49.4066C402.668 57.4329 402.485 63.0994 402.102 66.4395C401.72 69.7796 400.539 72.8206 398.559 75.5791C396.563 78.3376 393.884 80.4647 390.49 81.9436C387.096 83.4226 383.154 84.1537 378.662 84.1537C374.17 84.1537 370.543 83.4558 367.149 82.0599C363.756 80.6641 361.011 78.5703 358.931 75.7785C356.851 72.9868 355.62 69.9458 355.238 66.6556C354.855 63.3653 354.639 57.6157 354.639 49.4066V35.7471C354.639 27.7375 354.822 22.0543 355.205 18.7142C355.587 15.3741 356.768 12.3331 358.748 9.57461C360.744 6.81611 363.423 4.68908 366.817 3.21012C370.211 1.73117 374.153 1 378.662 1C382.937 1 386.78 1.69794 390.174 3.0938C393.568 4.48967 396.313 6.58347 398.393 9.3752C400.472 12.1669 401.703 15.2079 402.086 18.4982C402.485 21.7884 402.685 27.5381 402.685 35.7471V49.4066H402.668ZM381.906 23.1843C381.906 19.4786 381.706 17.1023 381.29 16.0554C380.874 15.0251 380.026 14.51 378.745 14.51C377.664 14.51 376.832 14.9254 376.25 15.7729C375.667 16.6038 375.384 19.0798 375.384 23.1843V60.4406C375.384 65.0769 375.567 67.9351 375.95 69.0152C376.333 70.0954 377.214 70.6437 378.595 70.6437C379.976 70.6437 380.908 70.0123 381.307 68.766C381.706 67.5197 381.906 64.5451 381.906 59.8424V23.1677V23.1843Z" fill="#383A7A"/>
<path d="M402.668 49.4066C402.668 57.4329 402.485 63.0994 402.102 66.4395C401.72 69.7796 400.539 72.8206 398.559 75.5791C396.563 78.3376 393.884 80.4647 390.49 81.9436C387.096 83.4226 383.154 84.1537 378.662 84.1537C374.17 84.1537 370.543 83.4558 367.149 82.0599C363.756 80.6641 361.011 78.5703 358.931 75.7785C356.851 72.9868 355.62 69.9458 355.238 66.6556C354.855 63.3653 354.639 57.6157 354.639 49.4066V35.7471C354.639 27.7375 354.822 22.0543 355.205 18.7142C355.587 15.3741 356.768 12.3331 358.748 9.57461C360.744 6.81611 363.423 4.68908 366.817 3.21012C370.211 1.73117 374.153 1 378.662 1C382.937 1 386.78 1.69794 390.174 3.0938C393.568 4.48967 396.313 6.58347 398.393 9.3752C400.472 12.1669 401.703 15.2079 402.086 18.4982C402.485 21.7884 402.685 27.5381 402.685 35.7471V49.4066H402.668ZM381.906 23.1843C381.906 19.4786 381.706 17.1023 381.29 16.0554C380.874 15.0251 380.026 14.51 378.745 14.51C377.664 14.51 376.832 14.9254 376.25 15.7729C375.667 16.6038 375.384 19.0798 375.384 23.1843V60.4406C375.384 65.0769 375.567 67.9351 375.95 69.0152C376.333 70.0954 377.214 70.6437 378.595 70.6437C379.976 70.6437 380.908 70.0123 381.307 68.766C381.706 67.5197 381.906 64.5451 381.906 59.8424V23.1677V23.1843Z" stroke="#383A7A" stroke-miterlimit="10"/>
</svg>
